<?xml version="1.0" encoding="utf-8"?>
<!-- Generator: Adobe Illustrator 23.0.1, SVG Export Plug-In . SVG Version: 6.00 Build 0)  -->
<svg version="1.1" id="Layer_1" xmlns="http://www.w3.org/2000/svg" xmlns:xlink="http://www.w3.org/1999/xlink" x="0px" y="0px"
	 viewBox="0 0 503.6 503.6" style="enable-background:new 0 0 503.6 503.6;" xml:space="preserve">
<style type="text/css">
	.st0{fill:#9D2A2C;}
</style>
<g transform="translate(1 1)">
	<g>
		<g>
			<path class="st0" d="M368.3,410.3V318c0-14.3-10.9-25.2-25.2-25.2h-4.2c-4.2,0-7.6-2.5-8.4-5.9l-29.4-102.4v-0.8
				c-6.7-15.1-21.8-25.2-38.6-25.2H104.8c-16.8,0-31.9,10.1-38.6,25.2v0.8L36.8,286.9c-1.7,3.4-5,5.9-8.4,5.9h-4.2
				C9.9,292.8-1,303.7-1,318v92.3c0,14.3,10.9,25.2,25.2,25.2v42c0,14.3,10.9,25.2,25.2,25.2h16.8c14.3,0,25.2-10.9,25.2-25.2v-42
				H276v42c0,14.3,10.9,25.2,25.2,25.2H318c14.3,0,25.2-10.9,25.2-25.2v-42C357.4,435.5,368.3,424.5,368.3,410.3z M74.5,477.4
				c0,5-3.4,8.4-8.4,8.4H49.4c-5,0-8.4-3.4-8.4-8.4v-42h33.6L74.5,477.4L74.5,477.4z M326.3,477.4c0,5-3.4,8.4-8.4,8.4h-16.8
				c-5,0-8.4-3.4-8.4-8.4v-42h33.6L326.3,477.4L326.3,477.4z M351.5,410.3c0,5-3.4,8.4-8.4,8.4h-8.4h-50.4H82.9H32.6h-8.4
				c-5,0-8.4-3.4-8.4-8.4V318c0-5,3.4-8.4,8.4-8.4h4.2c10.9,0,21-7.6,24.3-18.5l29.4-101.6c4.2-8.4,12.6-14.3,22.7-14.3h157.8
				c9.2,0,18.5,5,22.7,14.3l29.4,101.6c3.4,10.9,13.4,18.5,24.3,18.5h4.2c5,0,8.4,3.4,8.4,8.4L351.5,410.3L351.5,410.3z"/>
			<path class="st0" d="M74.5,326.3c-18.5,0-33.6,15.1-33.6,33.6s15.1,33.6,33.6,33.6s33.6-15.1,33.6-33.6S93,326.3,74.5,326.3z
				 M74.5,376.7c-9.2,0-16.8-7.6-16.8-16.8s7.6-16.8,16.8-16.8s16.8,7.6,16.8,16.8S83.8,376.7,74.5,376.7z"/>
			<path class="st0" d="M292.8,326.3c-18.5,0-33.6,15.1-33.6,33.6s15.1,33.6,33.6,33.6s33.6-15.1,33.6-33.6S311.2,326.3,292.8,326.3
				z M292.8,376.7c-9.2,0-16.8-7.6-16.8-16.8s7.6-16.8,16.8-16.8s16.8,7.6,16.8,16.8S302,376.7,292.8,376.7z"/>
			<path class="st0" d="M200.4,368.3h-33.6c-5,0-8.4,3.4-8.4,8.4s3.4,8.4,8.4,8.4h33.6c5,0,8.4-3.4,8.4-8.4
				C208.8,371.7,205.5,368.3,200.4,368.3z"/>
			<path class="st0" d="M217.2,334.7h-67.1c-5,0-8.4,3.4-8.4,8.4s3.4,8.4,8.4,8.4h67.1c5,0,8.4-3.4,8.4-8.4S222.3,334.7,217.2,334.7
				z"/>
			<path class="st0" d="M103.1,292.8h162c5,0,10.1-2.5,13.4-6.7s4.2-10.1,2.5-15.1l-20.1-67.1c-1.7-6.7-8.4-11.8-15.9-11.8H123.2
				c-7.6,0-13.4,4.2-15.9,11.8L87.2,271c-1.7,5-0.8,10.9,2.5,15.1S98,292.8,103.1,292.8z M123.2,208.8h121.7l20.1,67.1H103
				L123.2,208.8z"/>
			<path class="st0" d="M427.1,502.6V158.5h67.1c5,0,8.4-3.4,8.4-8.4V7.4c0-5-3.4-8.4-8.4-8.4H351.5c-5,0-8.4,3.4-8.4,8.4v142.7
				c0,5,3.4,8.4,8.4,8.4h58.8v344.1L427.1,502.6L427.1,502.6z M485.8,141.7H359.9V15.8h125.9V141.7z"/>
			<path class="st0" d="M410.3,124.9c5,0,8.4-3.4,8.4-8.4V99.7h8.4c18.5,0,33.6-15.1,33.6-33.6s-15.1-33.6-33.6-33.6h-16.8
				c-5,0-8.4,3.4-8.4,8.4v50.4v25.2C401.9,121.5,405.2,124.9,410.3,124.9z M443.9,66.1c0,9.2-7.6,16.8-16.8,16.8h-8.4V49.4h8.4
				C436.3,49.4,443.9,56.9,443.9,66.1z"/>
		</g>
	</g>
</g>
</svg>
